<svg xmlns="http://www.w3.org/2000/svg" width="1200" height="390" viewBox="0 0 1200 390" role="img" aria-labelledby="title desc">
  <title id="title">Linguagens mais usadas por thelzf</title>
  <desc id="desc">Distribuição das seis linguagens mais usadas nos repositórios públicos próprios.</desc>
  <defs>
    <linearGradient id="background" x1="0" y1="0" x2="1" y2="1"><stop stop-color="#01030a"/><stop offset=".55" stop-color="#030712"/><stop offset="1" stop-color="#061936"/></linearGradient>
    <linearGradient id="accent"><stop stop-color="#1677ff"/><stop offset="1" stop-color="#54c7ff"/></linearGradient>
    <filter id="glow" x="-200%" y="-200%" width="500%" height="500%"><feGaussianBlur stdDeviation="4" result="blur"/><feMerge><feMergeNode in="blur"/><feMergeNode in="SourceGraphic"/></feMerge></filter>
    <style>
      text { font-family: Inter, ui-sans-serif, system-ui, -apple-system, BlinkMacSystemFont, "Segoe UI", sans-serif; }
      .eyebrow { fill: #38bdf8; font-size: 13px; font-weight: 700; letter-spacing: 4px; }
      .heading { fill: #f8fafc; font-size: 25px; font-weight: 800; }
      .language { fill: #f8fafc; font-size: 17px; font-weight: 650; }
      .percent { fill: #8eaccd; font-size: 15px; text-anchor: end; }
    </style>
  </defs>
  <rect x="1" y="1" width="1198" height="388" rx="28" fill="url(#background)" stroke="#1684ff" stroke-width="2"/>
  <path d="M32 4 H1168" stroke="url(#accent)" stroke-width="3" filter="url(#glow)"/>
  <text x="48" y="45" class="eyebrow">GITHUB / CODE SPECTRUM</text>
  <text x="48" y="80" class="heading">LINGUAGENS MAIS USADAS</text>
  <g>
    <circle cx="64" cy="119" r="7" fill="#3178c6"/>
    <text x="86" y="125" class="language">TypeScript</text>
    <rect x="300" y="107" width="800" height="17" rx="8.5" fill="#0d1d31"/>
    <rect x="300" y="107" width="400" height="17" rx="8.5" fill="#3178c6"/>
    <text x="1140" y="125" class="percent">50.0%</text>
  </g>
  <g>
    <circle cx="64" cy="162" r="7" fill="#4F5D95"/>
    <text x="86" y="168" class="language">PHP</text>
    <rect x="300" y="150" width="800" height="17" rx="8.5" fill="#0d1d31"/>
    <rect x="300" y="150" width="240" height="17" rx="8.5" fill="#4F5D95"/>
    <text x="1140" y="168" class="percent">30.0%</text>
  </g>
  <g>
    <circle cx="64" cy="205" r="7" fill="#f1e05a"/>
    <text x="86" y="211" class="language">JavaScript</text>
    <rect x="300" y="193" width="800" height="17" rx="8.5" fill="#0d1d31"/>
    <rect x="300" y="193" width="160" height="17" rx="8.5" fill="#f1e05a"/>
    <text x="1140" y="211" class="percent">20.0%</text>
  </g>
</svg>
